<?xml version="1.0" encoding="utf-8"?>
<!-- Generator: Adobe Illustrator 17.0.0, SVG Export Plug-In . SVG Version: 6.00 Build 0)  -->
<!DOCTYPE svg PUBLIC "-//W3C//DTD SVG 1.1//EN" "http://www.w3.org/Graphics/SVG/1.1/DTD/svg11.dtd">
<svg version="1.1" id="Layer_1" xmlns="http://www.w3.org/2000/svg" xmlns:xlink="http://www.w3.org/1999/xlink" x="0px" y="0px"
	 width="286px" height="180px" viewBox="0 0 286 180" enable-background="new 0 0 286 180" xml:space="preserve">
<g id="holder_163559cedc2">
	<rect fill="#777777" width="286" height="180"/>
</g>
<g>
	<g>
		<path fill="#DDDDDD" d="M94.644,63.33c0,1.702-0.634,3.067-1.902,4.097c-1.18,0.951-2.646,1.427-4.399,1.427h-5.336V49.608h3.83
			c2.729,0,4.57,0.737,5.521,2.21c0.476,0.75,0.713,1.582,0.713,2.498c0,1.805-0.832,3.152-2.496,4.041
			c1.796,0.602,3.002,1.553,3.619,2.853C94.494,61.864,94.644,62.571,94.644,63.33z M91.064,54.325c0-1.88-1.299-2.82-3.896-2.82
			h-2.245v6.149h1.11c1.074,0,1.897-0.074,2.47-0.222c0.88-0.226,1.55-0.67,2.008-1.332C90.879,55.57,91.064,54.978,91.064,54.325z
			 M92.636,63.359c0-0.907-0.308-1.683-0.925-2.329c-0.563-0.593-1.312-0.999-2.245-1.217c-0.661-0.157-1.81-0.236-3.447-0.236
			h-1.096v7.379h2.404c1.136,0,2.008-0.083,2.615-0.249c0.907-0.253,1.607-0.737,2.1-1.452
			C92.438,64.672,92.636,64.039,92.636,63.359z"/>
		<path fill="#DDDDDD" d="M100.152,68.854h-1.928V49.608h1.928V68.854z"/>
		<path fill="#DDDDDD" d="M124.495,59.617c-0.018,2.969-0.903,5.332-2.655,7.088c-1.752,1.756-4.121,2.633-7.106,2.633
			c-3.593,0-6.437-1.212-8.532-3.637c-1.611-1.867-2.417-4.025-2.417-6.477c0-1.832,0.462-3.531,1.387-5.096
			c0.925-1.565,2.193-2.791,3.804-3.677c1.611-0.885,3.434-1.328,5.468-1.328c3.302,0,6.27,1.239,8.903,3.716l-1.493,1.413
			c-2.205-2.146-4.653-3.219-7.343-3.219c-1.526,0-2.968,0.366-4.326,1.098c-1.403,0.741-2.483,1.747-3.242,3.02
			c-0.758,1.272-1.137,2.614-1.137,4.026c0,1.499,0.401,2.892,1.204,4.177c0.802,1.285,1.879,2.29,3.228,3.013
			c1.385,0.75,2.902,1.124,4.551,1.124c1.931,0,3.59-0.527,4.974-1.58c1.446-1.097,2.302-2.572,2.567-4.426h-6.208v-1.871H124.495z"
			/>
		<path fill="#DDDDDD" d="M153.579,59.473c0,1.753-0.367,3.358-1.102,4.815c-0.811,1.579-1.952,2.752-3.422,3.52
			c-1.348,0.698-3.233,1.047-5.656,1.047h-6.185V49.608h4.031c2.899,0,5.009,0.231,6.331,0.693c1.974,0.689,3.485,1.88,4.533,3.572
			C153.089,55.461,153.579,57.327,153.579,59.473z M151.624,59.499c0-1.794-0.427-3.339-1.281-4.637
			c-0.898-1.376-2.188-2.316-3.87-2.821c-1.215-0.365-3.219-0.548-6.01-0.548h-1.374v15.531h2.245c2.694,0,4.557-0.165,5.587-0.496
			c1.55-0.497,2.734-1.393,3.553-2.691C151.241,62.616,151.624,61.171,151.624,59.499z"/>
		<path fill="#DDDDDD" d="M174.342,68.854h-2.087l-3.051-6.333h-8.374l-3.038,6.333h-2.166l9.18-19.246h0.476L174.342,68.854z
			 M168.346,60.651l-3.302-6.974l-3.342,6.974H168.346z"/>
		<path fill="#DDDDDD" d="M186.084,51.492h-4.332v17.362h-1.968V51.492h-4.345v-1.884h10.646V51.492z"/>
		<path fill="#DDDDDD" d="M205.87,68.854h-2.087l-3.051-6.333h-8.374l-3.038,6.333h-2.166l9.18-19.246h0.476L205.87,68.854z
			 M199.874,60.651l-3.302-6.974l-3.342,6.974H199.874z"/>
	</g>
	<g>
		<path fill="#DDDDDD" d="M95.953,101.146c-2.029,0-3.828-0.64-5.396-1.922c-1.698-1.379-2.679-3.178-2.948-5.391
			c-1.61-0.986-3.226-1.898-4.873-2.647c-0.037,0.417-0.062,0.839-0.062,1.268c0,3.744,1.279,6.906,3.836,9.486
			c2.557,2.58,5.708,3.87,9.452,3.87c3.264,0,6.07-1.005,8.418-3.01c-1.927-0.512-3.765-1.26-5.544-2.145
			C97.948,100.983,96.987,101.146,95.953,101.146z"/>
		<path fill="#DDDDDD" d="M95.928,79.115c-2.373,0-4.585,0.593-6.636,1.78c-2.085,1.21-3.709,2.834-4.872,4.873
			c-0.244,0.428-0.457,0.867-0.65,1.312c1.424,0.708,2.827,1.526,4.229,2.395c0.382-1.155,0.998-2.188,1.849-3.097
			c1.568-1.697,3.575-2.545,6.02-2.545c2.387,0,4.387,0.854,6.002,2.562c1.58,1.674,2.37,3.711,2.37,6.112
			c0,1.97-0.53,3.692-1.588,5.167c1.587,0.546,3.231,0.945,4.95,1.138c0.984-1.871,1.476-3.962,1.476-6.271
			c0-3.698-1.261-6.854-3.784-9.469C102.736,80.435,99.614,79.115,95.928,79.115z"/>
		<path fill="#DDDDDD" d="M130.161,100.209c-1.266,0.648-2.675,0.972-4.229,0.972c-1.488,0-2.852-0.31-4.095-0.923
			c-1.829,0.976-3.576,1.708-5.25,2.23c2.451,2.215,5.54,3.324,9.268,3.324c2.281,0,4.296-0.403,6.048-1.21
			c1.578-0.737,3.242-1.958,4.993-3.663l-3.283-3.421C132.371,98.756,131.22,99.653,130.161,100.209z"/>
		<path fill="#DDDDDD" d="M125.925,79.115c-2.465,0-4.763,0.599-6.895,1.797c-4.435,2.488-6.652,6.324-6.652,11.508
			c0,2.313,0.434,4.373,1.297,6.184c1.523-0.272,3.106-0.718,4.758-1.366c-0.808-1.323-1.217-2.921-1.217-4.8
			c0-2.447,0.829-4.499,2.486-6.155c1.657-1.656,3.705-2.485,6.145-2.485c2.877,0,5.466,1.221,7.767,3.663L137,84.23
			C134.074,80.82,130.383,79.115,125.925,79.115z"/>
		<path fill="#DDDDDD" d="M141.251,84.495c4.835-1.417,8.976-1.151,12.766-0.023h1.109v-4.717h-13.875V84.495z"/>
		<path fill="#DDDDDD" d="M146.072,89.103v-0.91c-1.532,0.119-3.134,0.407-4.821,0.901v16.078h13.875v-4.734h-9.054v-6.704h9.054
			V89.43c-0.331-0.115-0.664-0.225-1-0.327H146.072z"/>
		<path fill="#DDDDDD" d="M169.874,86.476l2.906,7.545c1.825,0.807,3.715,1.461,5.713,1.861l-6.201-16.128h-4.904l-3.598,9.341
			c1.376,0.808,2.746,1.633,4.132,2.425L169.874,86.476z"/>
		<path fill="#DDDDDD" d="M162.342,92.855l-4.744,12.317h5.011l2.076-5.236h10.38l1.99,5.236h5.011l-1.689-4.393
			C173.559,100.016,168.069,96.124,162.342,92.855z"/>
		<path fill="#DDDDDD" d="M190.462,79.755h-4.631v15.666c1.674-0.48,3.278-1.125,4.838-1.87v-5.053l2.471,3.784
			c1.345-0.734,2.669-1.514,3.991-2.297L190.462,79.755z"/>
		<path fill="#DDDDDD" d="M201.365,79.755v7.785c1.576-0.861,3.178-1.655,4.838-2.306v-5.479H201.365z"/>
		<path fill="#DDDDDD" d="M185.831,105.172h4.838V98.15c-1.56,0.745-3.164,1.39-4.838,1.87V105.172z"/>
		<path fill="#DDDDDD" d="M201.365,96.481l-2.068-3.173c-1.324,0.769-2.639,1.562-3.964,2.333l6.222,9.531h4.648V89.833
			c-1.66,0.651-3.263,1.444-4.838,2.306V96.481z"/>
	</g>
</g>
</svg>
